<svg width="203" height="70" viewBox="0 0 203 70" fill="none" xmlns="http://www.w3.org/2000/svg">
<path d="M75.2231 12.6H78.3462L80.7154 32.2H77.0539L75.5462 19.1692L70.4308 29.9923H67.5231L62.3538 19.1692L60.7923 32.2H57.1308L59.5538 12.6H62.6231L68.9769 25.8462L75.2231 12.6Z" fill="white"/>
<path d="M84.4846 11.6846C85.7231 11.6846 86.6923 12.6 86.6923 13.7846C86.6923 15.0231 85.7231 15.8846 84.4846 15.8846C83.2462 15.8846 82.2231 15.0231 82.2231 13.7846C82.2231 12.6 83.2462 11.6846 84.4846 11.6846ZM86.2077 32.2H82.7615V18.9H86.2077V32.2Z" fill="white"/>
<path d="M88.5231 11.6846H91.9692V32.2H88.5231V11.6846Z" fill="white"/>
<path d="M94.3385 11.6846H97.7846V32.2H94.3385V11.6846Z" fill="white"/>
<path d="M101.877 11.6846C103.115 11.6846 104.085 12.6 104.085 13.7846C104.085 15.0231 103.115 15.8846 101.877 15.8846C100.638 15.8846 99.6154 15.0231 99.6154 13.7846C99.6154 12.6 100.638 11.6846 101.877 11.6846ZM103.546 32.2H100.154V18.9H103.6V32.2H103.546Z" fill="white"/>
<path d="M105.054 25.5231C105.054 21.3231 108.231 18.6308 111.946 18.6308C115.715 18.6308 118.838 21.3231 118.838 25.5231C118.838 29.7231 115.662 32.4692 111.946 32.4692C108.177 32.4692 105.054 29.6692 105.054 25.5231ZM115.392 25.5231C115.392 23.3692 113.831 22.0769 111.946 22.0769C110.008 22.0769 108.5 23.4231 108.5 25.5231C108.5 27.6769 110.062 29.0769 111.946 29.0769C113.885 29.0769 115.392 27.6769 115.392 25.5231Z" fill="white"/>
<path d="M123.9 32.2H120.454V18.9H123.9V20.8385C124.654 19.3846 126.269 18.5769 127.831 18.5769C130.954 18.5769 132.785 20.5154 132.785 24.2846V32.1462H129.338V24.9846C129.338 23.0462 128.315 22.0231 126.808 22.0231C125.192 22.0231 123.9 22.8308 123.9 25.1462V32.2Z" fill="white"/>
<path d="M140.162 12.6H154.862V15.9385H149.369V32.2H145.708V15.9385H140.215V12.6H140.162Z" fill="white"/>
<path d="M157.5 32.2H154.054V18.9H157.5V22.0231C158.2 19.6 159.762 18.6308 161.269 18.6308C162.185 18.6308 162.938 18.7923 163.477 19.1154L162.885 22.2385C162.077 21.8615 161.215 21.8615 160.892 21.8615C158.523 21.8615 157.554 23.9615 157.554 27.5154V32.2H157.5Z" fill="white"/>
<path d="M176.831 26.7077H166.708C166.923 28.4846 168.431 29.5615 170.369 29.5615C171.715 29.5615 173.062 28.9692 173.708 27.8385C174.515 28.2692 175.485 28.8077 176.346 29.2385C175.108 31.5 172.577 32.4692 170.154 32.4692C166.385 32.4692 163.262 29.6692 163.262 25.5231C163.262 21.3231 166.385 18.6308 170.154 18.6308C173.923 18.6308 176.885 21.3231 176.885 25.5231C176.885 25.8462 176.831 26.3846 176.831 26.7077ZM173.492 24.3385C173.223 22.5077 171.877 21.5385 170.154 21.5385C168.323 21.5385 166.923 22.5077 166.654 24.3385H173.492Z" fill="white"/>
<path d="M191.154 26.7077H181.031C181.246 28.4846 182.754 29.5615 184.692 29.5615C186.038 29.5615 187.385 28.9692 188.031 27.8385C188.838 28.2692 189.808 28.8077 190.669 29.2385C189.431 31.5 186.9 32.4692 184.477 32.4692C180.708 32.4692 177.585 29.6692 177.585 25.5231C177.585 21.3231 180.708 18.6308 184.477 18.6308C188.246 18.6308 191.208 21.3231 191.208 25.5231C191.208 25.8462 191.154 26.3846 191.154 26.7077ZM187.815 24.3385C187.546 22.5077 186.2 21.5385 184.477 21.5385C182.646 21.5385 181.246 22.5077 180.977 24.3385H187.815Z" fill="white"/>
<path d="M195.838 26.6538C192.392 25.7385 192.069 24.1231 192.069 22.6154C192.069 20.4615 194.331 18.6846 196.969 18.6846C199.5 18.6846 201.977 19.8154 202.138 22.8846H198.854C198.746 21.9154 197.885 21.5385 197.077 21.5385C196.215 21.5385 195.408 21.8615 195.408 22.8308C195.408 23.3692 196.054 23.7462 196.808 23.9615L199.015 24.5C202.085 25.3615 202.462 27.4077 202.462 28.4846C202.462 31.2308 199.769 32.5769 197.023 32.5769C194.385 32.5769 191.746 30.9615 191.692 28.1077H194.923C195.031 29.0231 196.108 29.8846 197.346 29.7769C198.315 29.7231 199.069 29.1846 199.069 28.4308C199.123 27.7308 198.638 27.4077 197.615 27.1923L195.838 26.6538Z" fill="white"/>
<path d="M75.2231 38.4462H78.3462L80.7154 58.0462H77.0539L75.5462 45.0154L70.4308 55.8385H67.5231L62.3538 45.0154L60.7923 58.0462H57.1308L59.5538 38.4462H62.6231L68.9769 51.6923L75.2231 38.4462Z" fill="white"/>
<path d="M81.8462 51.3154C81.8462 47.1154 85.0231 44.4231 88.7385 44.4231C92.4539 44.4231 95.6308 47.1154 95.6308 51.3154C95.6308 55.5154 92.4539 58.2615 88.7385 58.2615C85.0231 58.2615 81.8462 55.5154 81.8462 51.3154ZM92.1846 51.3154C92.1846 49.1615 90.6231 47.8692 88.7385 47.8692C86.8 47.8692 85.2923 49.2154 85.2923 51.3154C85.2923 53.4692 86.8539 54.8692 88.7385 54.8692C90.6769 54.8692 92.1846 53.5231 92.1846 51.3154Z" fill="white"/>
<path d="M97.1923 37.5308H100.638V58.0462H97.1923V37.5308Z" fill="white"/>
<path d="M112.969 56.2154C112.215 57.5615 110.546 58.3154 108.769 58.3154C105.269 58.3154 102.254 55.6231 102.254 51.4231C102.254 47.1692 105.269 44.4769 108.769 44.4769C110.546 44.4769 112.162 45.1769 112.969 46.5231V37.5308H116.415V58.0462H112.969V56.2154ZM109.362 47.7615C107.423 47.7615 105.862 49.1615 105.862 51.3692C105.862 53.5769 107.423 55.0308 109.362 55.0308C111.246 55.0308 112.915 53.6308 112.915 51.3692C112.862 49.0538 111.138 47.7615 109.362 47.7615Z" fill="white"/>
<path d="M117.977 51.3154C117.977 47.1154 121.154 44.4231 124.869 44.4231C128.638 44.4231 131.762 47.1154 131.762 51.3154C131.762 55.5154 128.585 58.2615 124.869 58.2615C121.1 58.2615 117.977 55.5154 117.977 51.3154ZM128.369 51.3154C128.369 49.1615 126.808 47.8692 124.923 47.8692C122.985 47.8692 121.477 49.2154 121.477 51.3154C121.477 53.4692 123.038 54.8692 124.923 54.8692C126.808 54.8692 128.369 53.5231 128.369 51.3154Z" fill="white"/>
<path d="M131.169 44.7462H134.885L138.277 53.5769L141.669 44.7462H145.385L139.785 58.0462H136.715L131.169 44.7462Z" fill="white"/>
<path d="M155.615 56.3231C154.808 57.6692 152.762 58.2615 151.469 58.2615C147.969 58.2615 144.685 55.5692 144.685 51.3692C144.685 47.1154 147.969 44.4769 151.469 44.4769C152.708 44.4769 154.592 44.9615 155.615 46.4154V44.7462H159.062V58.0462H155.615V56.3231ZM152.008 54.9231C153.892 54.9231 155.669 53.6308 155.669 51.3154C155.669 49 153.838 47.7077 152.008 47.7077C150.069 47.7077 148.346 49.1077 148.346 51.3154C148.346 53.5231 150.069 54.9231 152.008 54.9231Z" fill="white"/>
<path d="M0 50.2923C0 61.1692 10.1231 70 22.6154 70C35.1077 70 45.2308 61.1692 45.2308 50.2923H0Z" fill="#78BE20"/>
<path d="M38.3385 27.0846V21.1077V10.1231C38.3385 9.53077 38.0154 8.93846 37.4769 8.61539L23.4769 0.215385C23.2077 0.107692 22.9385 0 22.6154 0C22.2923 0 21.9692 0.107692 21.7 0.269231L7.70001 8.66923C7.16155 8.99231 6.83847 9.53077 6.83847 10.1769V21.1077V27.1385C6.83847 27.7308 7.16155 28.3231 7.70001 28.6462L21.7 37.0462C22.2385 37.3692 22.9385 37.3692 23.4769 37.0462L37.4769 28.6462C38.0154 28.2692 38.3385 27.7308 38.3385 27.0846Z" fill="#78BE20"/>
<path d="M21.9154 37.9615C22.3461 38.0692 22.8308 38.0692 23.2615 37.9615L22.6154 37.5846L21.9154 37.9615Z" fill="white"/>
<path d="M37.4769 52.8769L33.6 50.2923H30.8539L36.7231 54.3308L41.7308 56.4846L42.3231 54.9231L37.4769 52.8769Z" fill="#00573F"/>
<path d="M14.3769 50.2923H11.6308L8.02307 52.8769L2.90768 55.0846L3.49999 56.5923L8.83076 54.3308L14.3769 50.2923Z" fill="#00573F"/>
<path d="M23.8538 50.2923H21.3769L13.1923 57.6154L6.51538 61.2231L7.7 62.4615L12.7077 59.7154L12.1692 65.6385L13.7846 66.3385L14.4846 58.6385L21.8077 52.1231V61.3846L18.3077 67.6846L19.9769 67.9538L22.6154 63.2154L25.4154 67.9L27.1385 67.6308L23.4231 61.3846V52.1231L30.8 58.6923L31.4462 66.3385L33.0077 65.5846L32.4692 59.7154L37.5308 62.4615L38.7154 61.2231L32.0385 57.6154L23.8538 50.2923Z" fill="#00573F"/>
<path d="M33.6 43.1308H31.9846V50.3462H33.6V43.1308Z" fill="#78BE20"/>
<path d="M43.0769 23.9077L40.0077 22.0769V27.1385C40.0077 28.3231 39.3615 29.4538 38.3923 30.0462L24.3923 38.4462C24.3384 38.5 24.2846 38.5 24.1769 38.5538L32.3077 43.4C32.6308 43.5615 33.0077 43.5615 33.3308 43.4L43.0769 37.4769C43.3461 37.3154 43.5615 36.9923 43.5615 36.6154V24.7692C43.5615 24.4462 43.4 24.1231 43.0769 23.9077Z" fill="#78BE20"/>
<path d="M37.8539 36.4L36.9923 35L33.6 37.0462V32.8462L31.9846 33.8154V43.1308H33.6V38.9846L37.8539 36.4Z" fill="#00573F"/>
<path d="M23.4231 37.1H21.8077V50.2923H23.4231V37.1Z" fill="#78BE20"/>
<path d="M27.6231 25.0923L26.6 23.8L23.4231 26.1692V12.2231H21.8077V22.1846L14.0539 17.5L13.1923 18.9L21.8077 24.0692V37.1H23.4231V28.2154L27.6231 25.0923Z" fill="#00573F"/>
<path d="M13.2462 43.1308H11.6308V50.3462H13.2462V43.1308Z" fill="#78BE20"/>
<path d="M2.1 23.9077L5.22308 22.0769V27.1385C5.22308 28.3231 5.86923 29.4538 6.83846 30.0462L20.8385 38.4462C20.8923 38.5 20.9462 38.5 21.0539 38.5538L12.9231 43.4C12.6 43.5615 12.2231 43.5615 11.9 43.4L2.1 37.4769C1.83077 37.3154 1.61539 36.9923 1.61539 36.6692V24.7692C1.61539 24.4462 1.83077 24.1231 2.1 23.9077Z" fill="#78BE20"/>
<path d="M7.37692 36.4L8.23846 35L11.6308 37.0462V32.8462L13.2462 33.8154V43.1308H11.6308V38.9846L7.37692 36.4Z" fill="#00573F"/>
</svg>
