<svg width="126" height="32" viewBox="0 0 126 32" fill="none" xmlns="http://www.w3.org/2000/svg">
<path d="M18.6667 17.9998H22L23.3334 12.6665H18.6667V9.99984C18.6667 8.6265 18.6667 7.33317 21.3334 7.33317H23.3334V2.85317C22.8987 2.79584 21.2574 2.6665 19.524 2.6665C15.904 2.6665 13.3334 4.87584 13.3334 8.93317V12.6665H9.33337V17.9998H13.3334V29.3332H18.6667V17.9998Z" fill="#78BE20"/>
<path d="M73.724 8.66416C74.3333 11.0402 74.3333 16.0002 74.3333 16.0002C74.3333 16.0002 74.3333 20.9602 73.724 23.3362C73.3853 24.6495 72.3946 25.6828 71.14 26.0322C68.8613 26.6668 61 26.6668 61 26.6668C61 26.6668 53.1426 26.6668 50.86 26.0322C49.6 25.6775 48.6106 24.6455 48.276 23.3362C47.6666 20.9602 47.6666 16.0002 47.6666 16.0002C47.6666 16.0002 47.6666 11.0402 48.276 8.66416C48.6146 7.35083 49.6053 6.3175 50.86 5.96816C53.1426 5.3335 61 5.3335 61 5.3335C61 5.3335 68.8613 5.3335 71.14 5.96816C72.4 6.32283 73.3893 7.35483 73.724 8.66416ZM58.3333 20.6668L66.3333 16.0002L58.3333 11.3335V20.6668Z" fill="#78BE20"/>
<path d="M110 2.6665C113.623 2.6665 114.075 2.67984 115.496 2.7465C116.916 2.81317 117.883 3.03584 118.733 3.3665C119.613 3.70517 120.355 4.16384 121.096 4.90384C121.774 5.57036 122.299 6.37662 122.633 7.2665C122.963 8.11584 123.187 9.08384 123.253 10.5038C123.316 11.9252 123.333 12.3772 123.333 15.9998C123.333 19.6225 123.32 20.0745 123.253 21.4958C123.187 22.9158 122.963 23.8825 122.633 24.7332C122.3 25.6235 121.775 26.43 121.096 27.0958C120.429 27.7736 119.623 28.2982 118.733 28.6332C117.884 28.9625 116.916 29.1865 115.496 29.2532C114.075 29.3158 113.623 29.3332 110 29.3332C106.377 29.3332 105.925 29.3198 104.504 29.2532C103.084 29.1865 102.117 28.9625 101.267 28.6332C100.376 28.2991 99.57 27.7744 98.904 27.0958C98.2258 26.4294 97.7012 25.6231 97.3666 24.7332C97.036 23.8838 96.8133 22.9158 96.7466 21.4958C96.684 20.0745 96.6666 19.6225 96.6666 15.9998C96.6666 12.3772 96.68 11.9252 96.7466 10.5038C96.8133 9.0825 97.036 8.11717 97.3666 7.2665C97.7003 6.37608 98.225 5.5696 98.904 4.90384C99.5702 4.22548 100.377 3.70081 101.267 3.3665C102.117 3.03584 103.083 2.81317 104.504 2.7465C105.925 2.68384 106.377 2.6665 110 2.6665ZM110 9.33317C108.232 9.33317 106.536 10.0355 105.286 11.2858C104.036 12.536 103.333 14.2317 103.333 15.9998C103.333 17.7679 104.036 19.4636 105.286 20.7139C106.536 21.9641 108.232 22.6665 110 22.6665C111.768 22.6665 113.464 21.9641 114.714 20.7139C115.964 19.4636 116.667 17.7679 116.667 15.9998C116.667 14.2317 115.964 12.536 114.714 11.2858C113.464 10.0355 111.768 9.33317 110 9.33317ZM118.667 8.99984C118.667 8.55781 118.491 8.13389 118.178 7.82133C117.866 7.50877 117.442 7.33317 117 7.33317C116.558 7.33317 116.134 7.50877 115.821 7.82133C115.509 8.13389 115.333 8.55781 115.333 8.99984C115.333 9.44186 115.509 9.86579 115.821 10.1783C116.134 10.4909 116.558 10.6665 117 10.6665C117.442 10.6665 117.866 10.4909 118.178 10.1783C118.491 9.86579 118.667 9.44186 118.667 8.99984ZM110 11.9998C111.061 11.9998 112.078 12.4213 112.828 13.1714C113.579 13.9216 114 14.939 114 15.9998C114 17.0607 113.579 18.0781 112.828 18.8283C112.078 19.5784 111.061 19.9998 110 19.9998C108.939 19.9998 107.922 19.5784 107.172 18.8283C106.421 18.0781 106 17.0607 106 15.9998C106 14.939 106.421 13.9216 107.172 13.1714C107.922 12.4213 108.939 11.9998 110 11.9998Z" fill="#78BE20"/>
</svg>
